<svg id="visual" viewBox="0 0 900 450" width="900" height="450" xmlns="http://www.w3.org/2000/svg" xmlns:xlink="http://www.w3.org/1999/xlink" version="1.1"><rect x="0" y="0" width="900" height="450" fill="#ffffff"></rect><path d="M0 260L21.5 259C43 258 86 256 128.8 263.3C171.7 270.7 214.3 287.3 257.2 295.5C300 303.7 343 303.3 385.8 295.3C428.7 287.3 471.3 271.7 514.2 258.5C557 245.3 600 234.7 642.8 236.3C685.7 238 728.3 252 771.2 264.7C814 277.3 857 288.7 878.5 294.3L900 300L900 0L878.5 0C857 0 814 0 771.2 0C728.3 0 685.7 0 642.8 0C600 0 557 0 514.2 0C471.3 0 428.7 0 385.8 0C343 0 300 0 257.2 0C214.3 0 171.7 0 128.8 0C86 0 43 0 21.5 0L0 0Z" fill="#f7fcff"></path><path d="M0 247L21.5 238.2C43 229.3 86 211.7 128.8 198.3C171.7 185 214.3 176 257.2 178.8C300 181.7 343 196.3 385.8 207.5C428.7 218.7 471.3 226.3 514.2 222.5C557 218.7 600 203.3 642.8 194C685.7 184.7 728.3 181.3 771.2 183.7C814 186 857 194 878.5 198L900 202L900 0L878.5 0C857 0 814 0 771.2 0C728.3 0 685.7 0 642.8 0C600 0 557 0 514.2 0C471.3 0 428.7 0 385.8 0C343 0 300 0 257.2 0C214.3 0 171.7 0 128.8 0C86 0 43 0 21.5 0L0 0Z" fill="#cee6fa"></path><path d="M0 135L21.5 143.2C43 151.3 86 167.7 128.8 176.3C171.7 185 214.3 186 257.2 181.8C300 177.7 343 168.3 385.8 165.5C428.7 162.7 471.3 166.3 514.2 162.7C557 159 600 148 642.8 154.2C685.7 160.3 728.3 183.7 771.2 181.8C814 180 857 153 878.5 139.5L900 126L900 0L878.5 0C857 0 814 0 771.2 0C728.3 0 685.7 0 642.8 0C600 0 557 0 514.2 0C471.3 0 428.7 0 385.8 0C343 0 300 0 257.2 0C214.3 0 171.7 0 128.8 0C86 0 43 0 21.5 0L0 0Z" fill="#accef7"></path><path d="M0 88L21.5 98.7C43 109.3 86 130.7 128.8 133C171.7 135.3 214.3 118.7 257.2 109.3C300 100 343 98 385.8 95.7C428.7 93.3 471.3 90.7 514.2 99.3C557 108 600 128 642.8 137.5C685.7 147 728.3 146 771.2 145.5C814 145 857 145 878.5 145L900 145L900 0L878.5 0C857 0 814 0 771.2 0C728.3 0 685.7 0 642.8 0C600 0 557 0 514.2 0C471.3 0 428.7 0 385.8 0C343 0 300 0 257.2 0C214.3 0 171.7 0 128.8 0C86 0 43 0 21.5 0L0 0Z" fill="#94b4f2"></path><path d="M0 63L21.5 64.7C43 66.3 86 69.7 128.8 73.8C171.7 78 214.3 83 257.2 81.5C300 80 343 72 385.8 70.7C428.7 69.3 471.3 74.7 514.2 80.7C557 86.7 600 93.3 642.8 88.5C685.7 83.7 728.3 67.3 771.2 61.5C814 55.7 857 60.3 878.5 62.7L900 65L900 0L878.5 0C857 0 814 0 771.2 0C728.3 0 685.7 0 642.8 0C600 0 557 0 514.2 0C471.3 0 428.7 0 385.8 0C343 0 300 0 257.2 0C214.3 0 171.7 0 128.8 0C86 0 43 0 21.5 0L0 0Z" fill="#8a97e9"></path></svg>