<svg id="visual" viewBox="0 0 900 450" width="900" height="450" xmlns="http://www.w3.org/2000/svg" xmlns:xlink="http://www.w3.org/1999/xlink" version="1.1"><rect x="0" y="0" width="900" height="450" fill="#ffffff"></rect><path d="M0 308L21.5 302C43 296 86 284 128.8 282.3C171.7 280.7 214.3 289.3 257.2 297.8C300 306.3 343 314.7 385.8 315.8C428.7 317 471.3 311 514.2 302C557 293 600 281 642.8 282C685.7 283 728.3 297 771.2 302.5C814 308 857 305 878.5 303.5L900 302L900 451L878.5 451C857 451 814 451 771.2 451C728.3 451 685.7 451 642.8 451C600 451 557 451 514.2 451C471.3 451 428.7 451 385.8 451C343 451 300 451 257.2 451C214.3 451 171.7 451 128.8 451C86 451 43 451 21.5 451L0 451Z" fill="#fa7268"></path><path d="M0 333L21.5 329.5C43 326 86 319 128.8 317.2C171.7 315.3 214.3 318.7 257.2 320.5C300 322.3 343 322.7 385.8 322.8C428.7 323 471.3 323 514.2 325.8C557 328.7 600 334.3 642.8 332.2C685.7 330 728.3 320 771.2 322C814 324 857 338 878.5 345L900 352L900 451L878.5 451C857 451 814 451 771.2 451C728.3 451 685.7 451 642.8 451C600 451 557 451 514.2 451C471.3 451 428.7 451 385.8 451C343 451 300 451 257.2 451C214.3 451 171.7 451 128.8 451C86 451 43 451 21.5 451L0 451Z" fill="#ef5f67"></path><path d="M0 351L21.5 347.7C43 344.3 86 337.7 128.8 334C171.7 330.3 214.3 329.7 257.2 335.3C300 341 343 353 385.8 360.7C428.7 368.3 471.3 371.7 514.2 369.2C557 366.7 600 358.3 642.8 352C685.7 345.7 728.3 341.3 771.2 343.2C814 345 857 353 878.5 357L900 361L900 451L878.5 451C857 451 814 451 771.2 451C728.3 451 685.7 451 642.8 451C600 451 557 451 514.2 451C471.3 451 428.7 451 385.8 451C343 451 300 451 257.2 451C214.3 451 171.7 451 128.8 451C86 451 43 451 21.5 451L0 451Z" fill="#e34c67"></path><path d="M0 387L21.5 386.2C43 385.3 86 383.7 128.8 381.5C171.7 379.3 214.3 376.7 257.2 376C300 375.3 343 376.7 385.8 380.2C428.7 383.7 471.3 389.3 514.2 390.5C557 391.7 600 388.3 642.8 385.8C685.7 383.3 728.3 381.7 771.2 381.3C814 381 857 382 878.5 382.5L900 383L900 451L878.5 451C857 451 814 451 771.2 451C728.3 451 685.7 451 642.8 451C600 451 557 451 514.2 451C471.3 451 428.7 451 385.8 451C343 451 300 451 257.2 451C214.3 451 171.7 451 128.8 451C86 451 43 451 21.5 451L0 451Z" fill="#d53867"></path><path d="M0 430L21.5 428.5C43 427 86 424 128.8 423.7C171.7 423.3 214.3 425.7 257.2 425.2C300 424.7 343 421.3 385.8 416.5C428.7 411.7 471.3 405.3 514.2 405.7C557 406 600 413 642.8 412.2C685.7 411.3 728.3 402.7 771.2 400.7C814 398.7 857 403.3 878.5 405.7L900 408L900 451L878.5 451C857 451 814 451 771.2 451C728.3 451 685.7 451 642.8 451C600 451 557 451 514.2 451C471.3 451 428.7 451 385.8 451C343 451 300 451 257.2 451C214.3 451 171.7 451 128.8 451C86 451 43 451 21.5 451L0 451Z" fill="#c62368"></path></svg>