<svg id="visual" viewBox="0 0 900 450" width="900" height="450" xmlns="http://www.w3.org/2000/svg" xmlns:xlink="http://www.w3.org/1999/xlink" version="1.1"><rect x="0" y="0" width="900" height="450" fill="#e3908b"></rect><path d="M0 327L21.5 325.8C43 324.7 86 322.3 128.8 316.5C171.7 310.7 214.3 301.3 257.2 303C300 304.7 343 317.3 385.8 322.5C428.7 327.7 471.3 325.3 514.2 320.2C557 315 600 307 642.8 297.2C685.7 287.3 728.3 275.7 771.2 274.5C814 273.3 857 282.7 878.5 287.3L900 292L900 451L878.5 451C857 451 814 451 771.2 451C728.3 451 685.7 451 642.8 451C600 451 557 451 514.2 451C471.3 451 428.7 451 385.8 451C343 451 300 451 257.2 451C214.3 451 171.7 451 128.8 451C86 451 43 451 21.5 451L0 451Z" fill="#fa7268"></path><path d="M0 353L21.5 350.2C43 347.3 86 341.7 128.8 337.2C171.7 332.7 214.3 329.3 257.2 331.3C300 333.3 343 340.7 385.8 339.7C428.7 338.7 471.3 329.3 514.2 327.7C557 326 600 332 642.8 332.3C685.7 332.7 728.3 327.3 771.2 320.8C814 314.3 857 306.7 878.5 302.8L900 299L900 451L878.5 451C857 451 814 451 771.2 451C728.3 451 685.7 451 642.8 451C600 451 557 451 514.2 451C471.3 451 428.7 451 385.8 451C343 451 300 451 257.2 451C214.3 451 171.7 451 128.8 451C86 451 43 451 21.5 451L0 451Z" fill="#ef5f67"></path><path d="M0 374L21.5 369.2C43 364.3 86 354.7 128.8 354.7C171.7 354.7 214.3 364.3 257.2 365.3C300 366.3 343 358.7 385.8 355.8C428.7 353 471.3 355 514.2 359.5C557 364 600 371 642.8 368.8C685.7 366.7 728.3 355.3 771.2 350.3C814 345.3 857 346.7 878.5 347.3L900 348L900 451L878.5 451C857 451 814 451 771.2 451C728.3 451 685.7 451 642.8 451C600 451 557 451 514.2 451C471.3 451 428.7 451 385.8 451C343 451 300 451 257.2 451C214.3 451 171.7 451 128.8 451C86 451 43 451 21.5 451L0 451Z" fill="#e34c67"></path><path d="M0 393L21.5 394.2C43 395.3 86 397.7 128.8 397C171.7 396.3 214.3 392.7 257.2 387.5C300 382.3 343 375.7 385.8 374.7C428.7 373.7 471.3 378.3 514.2 377C557 375.7 600 368.3 642.8 371C685.7 373.7 728.3 386.3 771.2 386.3C814 386.3 857 373.7 878.5 367.3L900 361L900 451L878.5 451C857 451 814 451 771.2 451C728.3 451 685.7 451 642.8 451C600 451 557 451 514.2 451C471.3 451 428.7 451 385.8 451C343 451 300 451 257.2 451C214.3 451 171.7 451 128.8 451C86 451 43 451 21.5 451L0 451Z" fill="#d53867"></path><path d="M0 407L21.5 410.7C43 414.3 86 421.7 128.8 420.5C171.7 419.3 214.3 409.7 257.2 406.5C300 403.3 343 406.7 385.8 411.5C428.7 416.3 471.3 422.7 514.2 423.5C557 424.3 600 419.7 642.8 417.7C685.7 415.7 728.3 416.3 771.2 416.3C814 416.3 857 415.7 878.5 415.3L900 415L900 451L878.5 451C857 451 814 451 771.2 451C728.3 451 685.7 451 642.8 451C600 451 557 451 514.2 451C471.3 451 428.7 451 385.8 451C343 451 300 451 257.2 451C214.3 451 171.7 451 128.8 451C86 451 43 451 21.5 451L0 451Z" fill="#c62368"></path></svg>