<svg id="visual" viewBox="0 0 900 450" width="900" height="450" xmlns="http://www.w3.org/2000/svg" xmlns:xlink="http://www.w3.org/1999/xlink" version="1.1"><rect x="0" y="0" width="900" height="450" fill="#ffffff"></rect><path d="M0 246L21.5 238.7C43 231.3 86 216.7 128.8 208.7C171.7 200.7 214.3 199.3 257.2 193.8C300 188.3 343 178.7 385.8 175.2C428.7 171.7 471.3 174.3 514.2 178.8C557 183.3 600 189.7 642.8 186.3C685.7 183 728.3 170 771.2 174.8C814 179.7 857 202.3 878.5 213.7L900 225L900 451L878.5 451C857 451 814 451 771.2 451C728.3 451 685.7 451 642.8 451C600 451 557 451 514.2 451C471.3 451 428.7 451 385.8 451C343 451 300 451 257.2 451C214.3 451 171.7 451 128.8 451C86 451 43 451 21.5 451L0 451Z" fill="#f7fcff"></path><path d="M0 238L21.5 244C43 250 86 262 128.8 256C171.7 250 214.3 226 257.2 216.7C300 207.3 343 212.7 385.8 213.2C428.7 213.7 471.3 209.3 514.2 215C557 220.7 600 236.3 642.8 239.3C685.7 242.3 728.3 232.7 771.2 221.5C814 210.3 857 197.7 878.5 191.3L900 185L900 451L878.5 451C857 451 814 451 771.2 451C728.3 451 685.7 451 642.8 451C600 451 557 451 514.2 451C471.3 451 428.7 451 385.8 451C343 451 300 451 257.2 451C214.3 451 171.7 451 128.8 451C86 451 43 451 21.5 451L0 451Z" fill="#cee6fa"></path><path d="M0 255L21.5 255.7C43 256.3 86 257.7 128.8 267C171.7 276.3 214.3 293.7 257.2 297.3C300 301 343 291 385.8 288.3C428.7 285.7 471.3 290.3 514.2 297C557 303.7 600 312.3 642.8 314.8C685.7 317.3 728.3 313.7 771.2 312.8C814 312 857 314 878.5 315L900 316L900 451L878.5 451C857 451 814 451 771.2 451C728.3 451 685.7 451 642.8 451C600 451 557 451 514.2 451C471.3 451 428.7 451 385.8 451C343 451 300 451 257.2 451C214.3 451 171.7 451 128.8 451C86 451 43 451 21.5 451L0 451Z" fill="#accef7"></path><path d="M0 352L21.5 353.2C43 354.3 86 356.7 128.8 356.3C171.7 356 214.3 353 257.2 348C300 343 343 336 385.8 330.8C428.7 325.7 471.3 322.3 514.2 315.8C557 309.3 600 299.7 642.8 300.8C685.7 302 728.3 314 771.2 323.3C814 332.7 857 339.3 878.5 342.7L900 346L900 451L878.5 451C857 451 814 451 771.2 451C728.3 451 685.7 451 642.8 451C600 451 557 451 514.2 451C471.3 451 428.7 451 385.8 451C343 451 300 451 257.2 451C214.3 451 171.7 451 128.8 451C86 451 43 451 21.5 451L0 451Z" fill="#94b4f2"></path><path d="M0 392L21.5 390.5C43 389 86 386 128.8 383.2C171.7 380.3 214.3 377.7 257.2 376.8C300 376 343 377 385.8 377C428.7 377 471.3 376 514.2 373.7C557 371.3 600 367.7 642.8 374C685.7 380.3 728.3 396.7 771.2 399.3C814 402 857 391 878.5 385.5L900 380L900 451L878.5 451C857 451 814 451 771.2 451C728.3 451 685.7 451 642.8 451C600 451 557 451 514.2 451C471.3 451 428.7 451 385.8 451C343 451 300 451 257.2 451C214.3 451 171.7 451 128.8 451C86 451 43 451 21.5 451L0 451Z" fill="#8a97e9"></path></svg>