<svg id="visual" viewBox="0 0 900 450" width="900" height="450" xmlns="http://www.w3.org/2000/svg" xmlns:xlink="http://www.w3.org/1999/xlink" version="1.1"><rect x="0" y="0" width="900" height="450" fill="#e3908b"></rect><path d="M0 277L16.7 265C33.3 253 66.7 229 100 211C133.3 193 166.7 181 200 188C233.3 195 266.7 221 300 223.2C333.3 225.3 366.7 203.7 400 206C433.3 208.3 466.7 234.7 500 247.8C533.3 261 566.7 261 600 253C633.3 245 666.7 229 700 231.5C733.3 234 766.7 255 800 261.7C833.3 268.3 866.7 260.7 883.3 256.8L900 253L900 0L883.3 0C866.7 0 833.3 0 800 0C766.7 0 733.3 0 700 0C666.7 0 633.3 0 600 0C566.7 0 533.3 0 500 0C466.7 0 433.3 0 400 0C366.7 0 333.3 0 300 0C266.7 0 233.3 0 200 0C166.7 0 133.3 0 100 0C66.7 0 33.3 0 16.7 0L0 0Z" fill="#db5356" stroke-linecap="round" stroke-linejoin="miter"></path></svg>