<svg id="visual" viewBox="0 0 900 450" width="900" height="450" xmlns="http://www.w3.org/2000/svg" xmlns:xlink="http://www.w3.org/1999/xlink" version="1.1"><rect x="0" y="0" width="900" height="450" fill="#ffffff"></rect><path d="M0 180L21.5 186.2C43 192.3 86 204.7 128.8 202.5C171.7 200.3 214.3 183.7 257.2 184C300 184.3 343 201.7 385.8 204.7C428.7 207.7 471.3 196.3 514.2 196.7C557 197 600 209 642.8 213.3C685.7 217.7 728.3 214.3 771.2 204.3C814 194.3 857 177.7 878.5 169.3L900 161L900 0L878.5 0C857 0 814 0 771.2 0C728.3 0 685.7 0 642.8 0C600 0 557 0 514.2 0C471.3 0 428.7 0 385.8 0C343 0 300 0 257.2 0C214.3 0 171.7 0 128.8 0C86 0 43 0 21.5 0L0 0Z" fill="#fa7268"></path><path d="M0 203L21.5 190.8C43 178.7 86 154.3 128.8 141.3C171.7 128.3 214.3 126.7 257.2 135.8C300 145 343 165 385.8 170.2C428.7 175.3 471.3 165.7 514.2 163.5C557 161.3 600 166.7 642.8 172C685.7 177.3 728.3 182.7 771.2 179C814 175.3 857 162.7 878.5 156.3L900 150L900 0L878.5 0C857 0 814 0 771.2 0C728.3 0 685.7 0 642.8 0C600 0 557 0 514.2 0C471.3 0 428.7 0 385.8 0C343 0 300 0 257.2 0C214.3 0 171.7 0 128.8 0C86 0 43 0 21.5 0L0 0Z" fill="#ef5f67"></path><path d="M0 138L21.5 139.5C43 141 86 144 128.8 141.3C171.7 138.7 214.3 130.3 257.2 129C300 127.7 343 133.3 385.8 135.2C428.7 137 471.3 135 514.2 132.8C557 130.7 600 128.3 642.8 128C685.7 127.7 728.3 129.3 771.2 132.2C814 135 857 139 878.5 141L900 143L900 0L878.5 0C857 0 814 0 771.2 0C728.3 0 685.7 0 642.8 0C600 0 557 0 514.2 0C471.3 0 428.7 0 385.8 0C343 0 300 0 257.2 0C214.3 0 171.7 0 128.8 0C86 0 43 0 21.5 0L0 0Z" fill="#e34c67"></path><path d="M0 109L21.5 102.7C43 96.3 86 83.7 128.8 81.7C171.7 79.7 214.3 88.3 257.2 95.2C300 102 343 107 385.8 110C428.7 113 471.3 114 514.2 111.8C557 109.7 600 104.3 642.8 101.8C685.7 99.3 728.3 99.7 771.2 100.7C814 101.7 857 103.3 878.5 104.2L900 105L900 0L878.5 0C857 0 814 0 771.2 0C728.3 0 685.7 0 642.8 0C600 0 557 0 514.2 0C471.3 0 428.7 0 385.8 0C343 0 300 0 257.2 0C214.3 0 171.7 0 128.8 0C86 0 43 0 21.5 0L0 0Z" fill="#d53867"></path><path d="M0 36L21.5 39.7C43 43.3 86 50.7 128.8 51.5C171.7 52.3 214.3 46.7 257.2 42.8C300 39 343 37 385.8 34.7C428.7 32.3 471.3 29.7 514.2 36.7C557 43.7 600 60.3 642.8 62.8C685.7 65.3 728.3 53.7 771.2 50.5C814 47.3 857 52.7 878.5 55.3L900 58L900 0L878.5 0C857 0 814 0 771.2 0C728.3 0 685.7 0 642.8 0C600 0 557 0 514.2 0C471.3 0 428.7 0 385.8 0C343 0 300 0 257.2 0C214.3 0 171.7 0 128.8 0C86 0 43 0 21.5 0L0 0Z" fill="#c62368"></path></svg>