<svg id="visual" viewBox="0 0 900 450" width="900" height="450" xmlns="http://www.w3.org/2000/svg" xmlns:xlink="http://www.w3.org/1999/xlink" version="1.1"><rect x="0" y="0" width="900" height="450" fill="#ffffff"></rect><path d="M0 142L21.5 144.2C43 146.3 86 150.7 128.8 149.3C171.7 148 214.3 141 257.2 135.3C300 129.7 343 125.3 385.8 132.2C428.7 139 471.3 157 514.2 165.8C557 174.7 600 174.3 642.8 167.5C685.7 160.7 728.3 147.3 771.2 146.8C814 146.3 857 158.7 878.5 164.8L900 171L900 0L878.5 0C857 0 814 0 771.2 0C728.3 0 685.7 0 642.8 0C600 0 557 0 514.2 0C471.3 0 428.7 0 385.8 0C343 0 300 0 257.2 0C214.3 0 171.7 0 128.8 0C86 0 43 0 21.5 0L0 0Z" fill="#fa7268"></path><path d="M0 114L21.5 118.3C43 122.7 86 131.3 128.8 129.5C171.7 127.7 214.3 115.3 257.2 111.5C300 107.7 343 112.3 385.8 111.5C428.7 110.7 471.3 104.3 514.2 102.5C557 100.7 600 103.3 642.8 105.5C685.7 107.7 728.3 109.3 771.2 107.7C814 106 857 101 878.5 98.5L900 96L900 0L878.5 0C857 0 814 0 771.2 0C728.3 0 685.7 0 642.8 0C600 0 557 0 514.2 0C471.3 0 428.7 0 385.8 0C343 0 300 0 257.2 0C214.3 0 171.7 0 128.8 0C86 0 43 0 21.5 0L0 0Z" fill="#ef5f67"></path><path d="M0 78L21.5 81C43 84 86 90 128.8 91.7C171.7 93.3 214.3 90.7 257.2 88.3C300 86 343 84 385.8 86.8C428.7 89.7 471.3 97.3 514.2 98.5C557 99.7 600 94.3 642.8 89.8C685.7 85.3 728.3 81.7 771.2 79.5C814 77.3 857 76.7 878.5 76.3L900 76L900 0L878.5 0C857 0 814 0 771.2 0C728.3 0 685.7 0 642.8 0C600 0 557 0 514.2 0C471.3 0 428.7 0 385.8 0C343 0 300 0 257.2 0C214.3 0 171.7 0 128.8 0C86 0 43 0 21.5 0L0 0Z" fill="#e34c67"></path><path d="M0 58L21.5 58.8C43 59.7 86 61.3 128.8 63.8C171.7 66.3 214.3 69.7 257.2 67.5C300 65.3 343 57.7 385.8 59.5C428.7 61.3 471.3 72.7 514.2 71.8C557 71 600 58 642.8 57.7C685.7 57.3 728.3 69.7 771.2 74.7C814 79.7 857 77.3 878.5 76.2L900 75L900 0L878.5 0C857 0 814 0 771.2 0C728.3 0 685.7 0 642.8 0C600 0 557 0 514.2 0C471.3 0 428.7 0 385.8 0C343 0 300 0 257.2 0C214.3 0 171.7 0 128.8 0C86 0 43 0 21.5 0L0 0Z" fill="#d53867"></path><path d="M0 28L21.5 30.7C43 33.3 86 38.7 128.8 41.5C171.7 44.3 214.3 44.7 257.2 45C300 45.3 343 45.7 385.8 45.5C428.7 45.3 471.3 44.7 514.2 43.8C557 43 600 42 642.8 40.8C685.7 39.7 728.3 38.3 771.2 40.5C814 42.7 857 48.3 878.5 51.2L900 54L900 0L878.5 0C857 0 814 0 771.2 0C728.3 0 685.7 0 642.8 0C600 0 557 0 514.2 0C471.3 0 428.7 0 385.8 0C343 0 300 0 257.2 0C214.3 0 171.7 0 128.8 0C86 0 43 0 21.5 0L0 0Z" fill="#c62368"></path></svg>