<svg id="visual" viewBox="0 0 900 450" width="900" height="450" xmlns="http://www.w3.org/2000/svg" xmlns:xlink="http://www.w3.org/1999/xlink" version="1.1"><rect x="0" y="0" width="900" height="450" fill="#ffffff"></rect><path d="M0 270L16.7 253.2C33.3 236.3 66.7 202.7 100 201.3C133.3 200 166.7 231 200 233.5C233.3 236 266.7 210 300 210C333.3 210 366.7 236 400 250.5C433.3 265 466.7 268 500 252C533.3 236 566.7 201 600 192.2C633.3 183.3 666.7 200.7 700 207C733.3 213.3 766.7 208.7 800 208.2C833.3 207.7 866.7 211.3 883.3 213.2L900 215L900 0L883.3 0C866.7 0 833.3 0 800 0C766.7 0 733.3 0 700 0C666.7 0 633.3 0 600 0C566.7 0 533.3 0 500 0C466.7 0 433.3 0 400 0C366.7 0 333.3 0 300 0C266.7 0 233.3 0 200 0C166.7 0 133.3 0 100 0C66.7 0 33.3 0 16.7 0L0 0Z" fill="#db5356" stroke-linecap="round" stroke-linejoin="miter"></path></svg>